<svg viewBox="0 0 1920 1920" version="1.1" xmlns="http://www.w3.org/2000/svg" desc="Created with imagetracer-ts 1.0.2" >
 <path fill="rgb(187,184,119)" d="M 596 535 L 604.5 535 L 605.5 536 L 708.5 536 L 712 537.5 L 679 560.5 L 680 562.5 Q 678.8 565.3 677.5 563 L 675.5 563 L 655.5 580 L 628 607.5 Q 586 653.5 560 715.5 L 547 752.5 L 541 775.5 L 534 814.5 L 533 832.5 L 532 833.5 L 532 846.5 L 531 849 L 481.5 849 L 480 847.5 L 480 823.5 L 481 822.5 L 481 808.5 L 482 807.5 L 484 782.5 L 491 744.5 L 503 700.5 Q 515.4 663.4 532 630.5 L 550 598.5 L 573 565.5 Q 572.3 561.8 574.5 561 Q 577.8 562.1 577 559.5 L 596 535 Z" />
 <path fill="rgb(187,184,119)" d="M 500.5 536 L 507.5 536 L 515 542.5 L 516 551.5 L 499.5 576 Q 496.8 578.8 490.5 578 Q 484.4 576.6 482 571.5 Q 479.7 568.3 481 561.5 L 490 547.5 Q 486.3 545.8 489.5 544 L 491.5 545 L 498.5 537 L 500.5 536 Z" />
 <path fill="rgb(187,184,119)" d="M 1303.5 542 L 1327.5 542 L 1331 543 Q 1360.5 579.3 1384 622.5 L 1401 657.5 L 1416 696.5 L 1429 742.5 L 1435 773.5 L 1437 794.5 L 1438 795.5 L 1438 804.5 L 1439 805.5 L 1439 816.5 L 1440 817.5 L 1441 856.5 L 1439.5 858 L 1410.5 858 L 1409.5 857 L 1389 857 L 1389 798.5 L 1388 797.5 L 1387 774.5 L 1386 773.5 L 1386 766.5 L 1385 765.5 L 1385 759.5 L 1380 735.5 L 1380 730.5 L 1371 693.5 L 1360 658.5 L 1344 618.5 L 1323 575.5 L 1303.5 542 Z" />
 <path fill="rgb(187,184,119)" d="M 1402 543 L 1426.5 543 L 1429 545.5 L 1438 560.5 L 1438 565.5 Q 1436.6 571.6 1431.5 574 L 1425.5 576 Q 1418.1 574.9 1415 569.5 L 1403 550.5 L 1402 543 Z" />
 <path fill="rgb(187,184,119)" d="M 1452.5 606 Q 1463.1 605.4 1466 612.5 L 1476 634.5 L 1476 639.5 Q 1474.4 646.4 1468.5 649 L 1462.5 650 L 1458.5 649 L 1453 643.5 L 1443 621.5 L 1443 615.5 L 1448.5 608 L 1452.5 606 Z" />
 <path fill="rgb(187,184,119)" d="M 459.5 609 Q 471.3 607.2 474 614.5 L 476 622.5 L 463.5 649 Q 460.7 653.7 451.5 652 L 444 645.5 L 443 636.5 L 453 614.5 L 457.5 610 L 459.5 609 Z" />
 <path fill="rgb(187,184,119)" d="M 773.5 612 L 776 613.5 Q 779.4 632.6 792.5 642 L 794.5 641 L 796 645 Q 808.9 651.8 819 662.5 L 827 675.5 L 827 683.5 L 825 691 L 833.5 691 L 835 692.5 L 835 712.5 L 832.5 715 L 831.5 714 L 719.5 714 L 717.5 714 L 715.5 715 L 713 712.5 L 713 692.5 Q 714.8 688.3 716.5 691 L 723 691 L 723 688.5 Q 719.9 684.1 721 675.5 Q 724.9 665.4 732.5 659 L 755.5 642 L 763 634.5 L 771 620.5 L 772 613.5 L 773.5 612 Z" />
 <path fill="rgb(187,184,119)" d="M 1146.5 612 L 1149 615.5 L 1153 628.5 L 1162.5 640 L 1174.5 649 Q 1178.3 648.3 1179 650.5 L 1184.5 657 L 1193 664.5 Q 1199.5 670 1200 681.5 L 1197 691 L 1203.5 691 L 1204.5 690 L 1207 692.5 L 1207 712.5 Q 1205.3 716.8 1203.5 714 L 1088.5 714 L 1087.5 715 L 1086 713.5 L 1086 691.5 Q 1087.2 688.8 1088.5 691 L 1096 690.5 L 1093 682.5 L 1093 676.5 Q 1098.8 662.3 1110.5 654 L 1130 639.5 L 1131.5 637 L 1137 632.5 L 1143 621.5 L 1144 614.5 L 1146.5 612 Z" />
 <path fill="rgb(187,184,119)" d="M 955.5 654 L 967.5 654 L 969 655.5 L 966.5 658 L 963.5 658 L 954.5 662 L 948 667.5 Q 938.9 675.9 941 695.5 L 944 703.5 L 946.5 706 L 949 707.5 Q 947.5 711.9 950.5 711 Q 955.5 717 964.5 719 L 978.5 719 Q 988.7 716.2 995.5 710 L 997 712.5 L 986.5 724 Q 978.2 731.4 964 732 Q 971 760.7 989.5 779 L 992 780.5 L 993.5 783 L 1000.5 788 Q 1001.7 785.8 1003 788.5 Q 1002.5 792.5 1005.5 793 L 1050.5 821 Q 1051.7 818.8 1053 821.5 L 1055.5 825 L 1069 835.5 Q 1077.6 842.5 1080 854 L 841 852 Q 845.9 837.3 858.5 829 L 875.5 817 L 913.5 794 L 934 775.5 Q 950.6 757.9 957 731 Q 939.2 728.6 931 715.5 Q 925.9 709.1 924 699.5 L 924 686.5 Q 927 671 937.5 663 Q 944.5 656.5 955.5 654 Z" />
 <path fill="rgb(187,184,119)" d="M 969.5 678 L 972 679.5 L 973 685 L 976 686.5 Q 972.2 688.3 975.5 690 L 986.5 690 L 988 691.5 L 986.5 694 L 978 699 L 982 711.5 L 979.5 713 L 969.5 706 L 967 707 L 968 709.5 Q 966.8 712.3 965.5 710 L 959.5 713 Q 957.3 712.3 958 708.5 L 961 699 L 952 692.5 L 953.5 690 L 964.5 690 L 965 686.5 L 969.5 678 Z" />
 <path fill="rgb(187,184,119)" d="M 1482.5 684 Q 1490.8 683.8 1494 688.5 L 1500 704.5 L 1502 712.5 L 1502 720.5 L 1498 726.5 Q 1500.3 727.8 1497.5 729 Q 1496 725.5 1494.5 728 L 1488.5 729 Q 1482 727.5 1479 722.5 L 1472 698.5 L 1472 694.5 Q 1473.6 687.6 1479.5 685 L 1482.5 684 Z" />
 <path fill="rgb(187,184,119)" d="M 431.5 687 Q 441.2 685.8 444 691.5 Q 447 694.5 447 700.5 L 441 722.5 L 436.5 729 L 428.5 732 L 422.5 730 L 420 727.5 Q 415.7 724.3 417 715.5 L 422 696.5 L 427.5 689 L 431.5 687 Z" />
 <path fill="rgb(187,184,119)" d="M 735.5 719 L 812.5 719 L 814 720.5 L 814 851.5 L 813.5 852 L 791.5 852 L 790.5 851 L 734 851 L 734 720.5 L 735.5 719 Z" />
 <path fill="rgb(187,184,119)" d="M 1108.5 719 L 1184.5 719 L 1186 720.5 L 1186 855 L 1106 855 L 1106 721.5 L 1108.5 719 Z" />
 <path fill="rgb(187,184,119)" d="M 1498.5 766 L 1505.5 766 L 1513 772.5 L 1516 789.5 L 1516 802.5 L 1509.5 810 L 1501.5 811 Q 1495.4 809.6 1493 804.5 L 1489 777.5 L 1494.5 768 L 1498.5 766 Z" />
 <path fill="rgb(187,184,119)" d="M 417.5 768 Q 425.6 769.4 429 775.5 L 430 784.5 L 429 785.5 L 427 806.5 L 420.5 813 L 413.5 814 L 406 809.5 Q 402.2 806.3 403 798.5 L 404 797.5 L 405 779.5 Q 406.5 773 411.5 770 L 417.5 768 Z" />
 <path fill="rgb(187,184,119)" d="M 1501.5 848 L 1511.5 850 L 1516 853.5 L 1518 859 L 1513.5 858 L 1495 858 L 1499.5 849 L 1501.5 848 Z" />
 <path fill="rgb(161,214,163)" d="M 981.5 291 L 1006.5 292 L 1014 296.5 Q 1018.1 299.4 1017 307.5 L 1011.5 315 Q 1007.9 317.9 1000.5 317 L 999.5 316 L 983.5 316 Q 976.9 315.1 974 310.5 Q 970.8 307.2 972 299.5 L 978.5 292 L 981.5 291 Z" />
 <path fill="rgb(161,214,163)" d="M 914.5 292 Q 927 290 931 296.5 Q 934 299.5 934 305.5 Q 932.5 312 927.5 315 L 920.5 317 L 896.5 318 L 894.5 320 L 893 318.5 L 894.5 316 L 891 314.5 L 888 304.5 L 893.5 296 L 897.5 294 L 913.5 293 L 914.5 292 Z" />
 <path fill="rgb(161,214,163)" d="M 1063.5 301 L 1070.5 301 L 1091.5 306 L 1097 310.5 Q 1100.6 313.4 1099 321.5 L 1098 323.5 Q 1100.3 324.8 1097.5 326 L 1089.5 330 L 1084.5 330 L 1062.5 325 L 1056 319.5 L 1054 312.5 Q 1055.8 305.3 1061.5 302 L 1063.5 301 Z" />
 <path fill="rgb(161,214,163)" d="M 836.5 304 L 842.5 305 L 843.5 304 L 850 310.5 L 851 319.5 L 845.5 327 L 820.5 334 L 816.5 334 Q 810.4 332.6 808 327.5 L 806 320.5 Q 807.8 313.3 813.5 310 L 836.5 304 Z" />
 <path fill="rgb(161,214,163)" d="M 1147.5 323 L 1169.5 331 L 1176 335.5 Q 1179.7 338.3 1179 345.5 Q 1177.6 351.6 1172.5 354 Q 1169.3 356.3 1162.5 355 L 1141.5 347 L 1136 341.5 L 1135 332.5 L 1139.5 326 L 1147.5 323 Z" />
 <path fill="rgb(161,214,163)" d="M 755.5 329 L 762.5 329 L 770 334.5 L 772 339.5 L 771 341.5 L 771 343.5 Q 770.6 349.1 766.5 351 L 743.5 361 L 736.5 361 L 730 356.5 Q 726.8 353.2 728 345.5 L 734.5 338 L 755.5 329 Z" />
 <path fill="rgb(161,214,163)" d="M 1220.5 358 L 1225.5 358 L 1232.5 361 Q 1233.8 358.8 1235 361.5 L 1237.5 365 L 1260 378.5 Q 1264.3 381.7 1263 390.5 L 1256.5 398 L 1247.5 399 L 1213 377.5 Q 1209.4 374.6 1211 366.5 L 1217.5 359 L 1220.5 358 Z" />
 <path fill="rgb(161,214,163)" d="M 682.5 365 Q 692.3 364.7 695 371.5 Q 697.3 374.7 696 381.5 L 690.5 388 L 674.5 398 L 666.5 401 Q 658.4 399.6 655 393.5 L 654 385.5 L 659.5 378 L 682.5 365 Z" />
 <path fill="rgb(161,214,163)" d="M 956.5 368 Q 957.8 370.3 962.5 369 L 965.5 368 L 966.5 369 L 990.5 369 L 991.5 370 L 1002.5 370 L 1003.5 371 L 1012.5 371 L 1013.5 372 L 1026.5 373 L 1045.5 378 L 1073.5 389 L 1098.5 401 L 1147.5 428 L 1200.5 461 L 1240 488.5 Q 1238.4 499.4 1230.5 504 Q 1221.8 510.3 1204.5 508 L 1185.5 503 L 1186 504.5 L 1197 518.5 L 1197 520.5 L 1189.5 529 L 1180.5 532 L 1172.5 532 L 1155.5 527 L 1134.5 515 Q 1112.2 498.8 1093.5 479 L 1075.5 466 L 1057.5 458 L 1048.5 456 L 1041.5 456 L 1041 458.5 L 1042.5 460 Q 1062 463.5 1072 476.5 Q 1076.5 482 1075 493.5 Q 1072.4 502.4 1066.5 508 L 1060.5 507 L 1059 505.5 Q 1059.8 503.3 1057.5 504 L 1040.5 497 L 1026.5 494 L 1014.5 493 L 1013.5 492 L 1002.5 492 L 1001.5 491 L 984.5 491 L 975.5 493 L 948.5 493 L 934.5 490 L 924.5 486 L 896.5 472 L 878.5 470 L 877.5 471 L 868.5 471 L 858.5 473 L 844.5 477 L 796.5 494 Q 758.1 509.1 725 529.5 L 723.5 532 L 720.5 532 L 713.5 537 L 709.5 537 L 708.5 536 L 605.5 536 L 604.5 535 L 595 534.5 L 605 526.5 L 606.5 523 L 645 486.5 L 646.5 483 L 648.5 484 Q 709 430.5 791.5 399 L 838.5 384 L 869.5 377 L 899.5 373 L 900.5 372 L 917.5 371 L 918.5 370 L 955.5 369 L 956.5 368 Z" />
 <path fill="rgb(161,214,163)" d="M 1298.5 411 L 1307.5 412 L 1329 430.5 Q 1331.3 433.7 1330 440.5 L 1324.5 447 L 1316.5 449 L 1306.5 443 L 1291 428.5 L 1290 419.5 L 1296.5 412 L 1298.5 411 Z" />
 <path fill="rgb(161,214,163)" d="M 611.5 413 Q 623.3 411.2 626 418.5 Q 628.8 421.2 628 427.5 L 621.5 436 Q 619.3 435.3 620 437.5 Q 622.3 438.7 619.5 440 L 617.5 439 L 605.5 449 Q 602.3 451.3 595.5 450 L 589 444.5 L 587 437.5 L 588 433.5 L 591.5 429 L 611.5 413 Z" />
 <path fill="rgb(161,214,163)" d="M 1251.5 468 L 1272.5 484 L 1273.5 481 Q 1276.8 482.8 1273 484.5 L 1280.5 492 L 1290.5 500 Q 1291.8 497.7 1293 500.5 L 1292 502.5 L 1300 509.5 Q 1299.3 511.8 1301.5 511 L 1330 542.5 L 1328.5 543 L 1327.5 542 L 1303.5 542 L 1301 539.5 Q 1278.2 501.8 1250 469.5 L 1251.5 468 Z" />
 <path fill="rgb(161,214,163)" d="M 1359.5 468 L 1368.5 469 L 1379 479.5 L 1385 488 L 1389 489.5 L 1388 492.5 Q 1390.3 493.8 1389 498.5 L 1383.5 506 Q 1380.8 508.8 1374.5 508 L 1371.5 507 L 1362 497.5 L 1352 485.5 L 1351 476.5 L 1357.5 469 L 1359.5 468 Z" />
 <path fill="rgb(161,214,163)" d="M 552.5 470 L 558.5 470 L 566 476.5 Q 568.3 479.7 567 486.5 L 548.5 508 Q 545.2 511.2 537.5 510 L 533.5 507 Q 531.8 510.8 530 507.5 Q 533.5 506 531 504.5 Q 528.2 501.8 529 495.5 Q 537.4 481.4 549.5 471 L 552.5 470 Z" />
 <path fill="rgb(161,214,163)" d="M 1409.5 534 Q 1420.5 532 1423.5 538 Q 1425.3 534.2 1427 537.5 L 1425 540.5 L 1426.5 543 L 1403.5 543 L 1403 540.5 L 1409.5 534 Z" />
 <path fill="rgb(161,214,163)" d="M 762 1452 L 775.5 1455 L 846.5 1455 L 858 1452 L 858 1472.5 L 856 1473 Q 856.9 1464.8 851.5 1462 L 849.5 1461 L 816 1461 L 816 1561.5 L 819.5 1567 Q 822.8 1570 829 1569 L 828.5 1571 L 792 1571 Q 790.6 1567.3 796.5 1569 L 803 1564.5 L 804 1562.5 L 804 1461 L 770.5 1461 L 766 1464.5 Q 763.2 1467.5 764 1473 L 762 1472.5 L 762 1452 Z" />
 <path fill="rgb(161,214,163)" d="M 502.5 1453 L 529.5 1454 L 531 1455.5 L 531 1475.5 L 529.5 1476 L 528 1474.5 L 527 1467.5 L 523.5 1463 Q 517.5 1457 503.5 1459 Q 496.8 1461.3 493 1466.5 Q 488.8 1471.3 490 1481.5 L 495 1491 L 536 1523.5 Q 542.2 1530.3 545 1540.5 L 546 1556.5 Q 542.8 1571.3 532.5 1579 Q 521.4 1588.4 499.5 1587 Q 481.5 1584 473 1571.5 L 468 1559.5 L 468 1545.5 Q 470.8 1533.3 478.5 1526 L 481 1527.5 Q 472.5 1536 472 1552.5 L 475 1564.5 L 484.5 1575 L 496.5 1580 L 509.5 1580 Q 521.6 1577.6 528 1569.5 Q 534.6 1562.1 534 1547.5 Q 530.4 1531.6 518.5 1524 L 485 1497.5 L 480 1486.5 L 480 1476.5 Q 482.6 1463.2 492.5 1457 L 502.5 1453 Z" />
 <path fill="rgb(161,214,163)" d="M 907 1453 L 910 1454.5 L 953 1558.5 L 958.5 1566 L 964.5 1569 L 969 1569 L 968.5 1571 L 931 1571 Q 929.6 1567.3 935.5 1569 L 939 1566.5 L 940 1560.5 L 929 1531 L 885.5 1531 L 884 1532.5 L 874 1557.5 L 873 1564.5 L 875 1568 L 882 1569 L 881.5 1571 L 848 1571 Q 846.6 1567.3 852.5 1569 L 861 1563.5 L 903 1466.5 L 907 1453 Z M 907.5 1475 L 887 1524.5 L 887.5 1526 L 926 1526 L 907.5 1475 Z" />
 <path fill="rgb(161,214,163)" d="M 986 1453 Q 990.7 1452.3 992 1456.5 L 1076.5 1547 L 1077 1463.5 L 1075 1460 L 1071.5 1458 L 1064 1458 L 1064.5 1455 L 1099 1455 L 1097.5 1458 Q 1089.2 1456.7 1087 1461.5 L 1086 1463.5 L 1086 1568.5 L 1087 1574 L 1085.5 1574 L 1075 1563.5 L 996.5 1479 L 996 1563.5 Q 998.8 1570.6 1009 1569 L 1008.5 1571 L 974 1571 Q 972.9 1567.5 980.5 1569 L 986 1564.5 L 987 1562.5 L 987 1459.5 L 986 1453 Z" />
 <path fill="rgb(161,214,163)" d="M 1161.5 1453 L 1182.5 1453 L 1196.5 1456 Q 1214.5 1462.5 1225 1476.5 Q 1238.3 1491.7 1236 1522.5 Q 1231.9 1546.4 1216.5 1559 Q 1199.8 1574.8 1166.5 1574 L 1149.5 1571 L 1136.5 1565 L 1120 1550.5 L 1111 1533.5 L 1109 1525.5 L 1108 1511.5 L 1109 1510.5 L 1110 1496.5 L 1113 1487.5 Q 1118.6 1475.1 1128.5 1467 L 1145.5 1457 L 1161.5 1453 Z M 1161.5 1459 Q 1149.4 1461.4 1141.5 1468 L 1130 1480.5 L 1124 1494.5 L 1122 1504.5 L 1122 1522.5 L 1124 1532.5 Q 1127.5 1544.5 1135 1552.5 Q 1145.2 1564.8 1164.5 1568 Q 1189.6 1569.6 1202.5 1559 Q 1217.6 1547.6 1222 1525.5 L 1222 1501.5 L 1221 1496.5 Q 1217.5 1482.5 1209 1473.5 Q 1201.5 1465.5 1190.5 1461 L 1182.5 1459 L 1161.5 1459 Z" />
 <path fill="rgb(161,214,163)" d="M 1399 1453 L 1402 1454.5 L 1443 1554.5 Q 1445.2 1561.8 1450.5 1566 Q 1454.1 1569.8 1461 1569 L 1460.5 1571 L 1423 1571 Q 1421.7 1567.3 1427.5 1569 Q 1431.5 1567 1432 1561.5 L 1421 1531 L 1376.5 1531 L 1376 1533.5 L 1365 1559.5 L 1365 1564.5 L 1367.5 1568 L 1373 1569 L 1372.5 1571 L 1339 1571 Q 1337.6 1567 1344.5 1569 L 1355 1560.5 L 1396 1463.5 L 1399 1453 Z M 1398 1475 L 1379 1524.5 L 1379.5 1526 L 1418 1526 L 1400 1477.5 Q 1401 1473.8 1398 1475 Z" />
 <path fill="rgb(161,214,163)" d="M 559 1455 L 593.5 1455 L 594 1456.5 Q 592.5 1459.5 586.5 1458 L 583 1461.5 L 582 1463.5 L 582 1533.5 L 585 1546.5 Q 588.7 1555.3 595.5 1561 Q 604.4 1569.1 622.5 1568 Q 639.2 1565.2 647 1553.5 L 653 1538.5 L 653 1462.5 L 650.5 1459 L 642 1458 L 642.5 1455 L 673 1455 L 673 1458 L 666.5 1458 L 662 1462.5 L 662 1535.5 Q 659.8 1536.7 661 1541.5 Q 657.8 1555.3 648.5 1563 Q 636.8 1574.8 612.5 1574 Q 610.8 1571.2 604.5 1573 L 595.5 1570 Q 586.1 1565.9 580 1558.5 Q 573.1 1550.9 571 1538.5 L 571 1463.5 L 566.5 1458 Q 560.5 1459.5 559 1456.5 L 559 1455 Z" />
 <path fill="rgb(161,214,163)" d="M 691 1455 L 726.5 1455 L 727 1458 Q 718.1 1456.3 716 1462.5 L 715 1464.5 L 715 1566 L 746.5 1565 Q 756.5 1563 761 1555.5 L 767.5 1544 Q 770.1 1543.2 769 1546.5 L 760 1571 L 691.5 1571 L 691 1569 Q 698 1570 701 1565.5 L 703 1561.5 L 703 1464.5 L 698.5 1459 L 691 1458 L 691 1455 Z" />
 <path fill="rgb(161,214,163)" d="M 1235 1455 L 1272.5 1455 L 1273 1456.5 Q 1272 1459 1267.5 1458 L 1265 1460.5 L 1264 1465.5 L 1297 1548.5 L 1299.5 1552 L 1335 1467.5 L 1335 1461.5 L 1334 1459 L 1327 1458 L 1327.5 1455 L 1361 1455 L 1361 1458 L 1354.5 1458 L 1347 1463.5 L 1303 1560.5 L 1299 1574 L 1296 1572.5 L 1253 1472.5 Q 1250.5 1464.5 1244.5 1460 Q 1241.3 1457 1235 1458 L 1235 1455 Z" />
 <path fill="rgb(161,214,163)" d="M 1038 1667 L 1039.5 1667 L 1055 1682.5 L 1128.5 1762 L 1129 1678.5 L 1123.5 1672 L 1116 1672 L 1116 1669 L 1149.5 1669 L 1150 1672 Q 1141.8 1670.5 1139 1675.5 L 1137 1679.5 L 1137 1773.5 L 1138 1774.5 Q 1137 1783.5 1139 1788 L 1137.5 1788 L 1123 1773.5 L 1047.5 1692 L 1047 1774.5 L 1052.5 1782 L 1061 1783 L 1060.5 1785 L 1026 1785 Q 1024.6 1781 1031.5 1783 L 1038 1778.5 L 1039 1775.5 L 1039 1675.5 L 1038 1674.5 L 1038 1667 Z" />
 <path fill="rgb(161,214,163)" d="M 1269.5 1667 Q 1271.8 1666.3 1271 1668.5 L 1314 1771.5 L 1321.5 1781 L 1331 1783 L 1330.5 1785 L 1293 1785 Q 1291.7 1781.3 1297.5 1783 Q 1302.8 1781.3 1301 1772.5 L 1289.5 1745 L 1246.5 1745 L 1246 1746.5 L 1236 1770.5 L 1235 1779.5 Q 1237.1 1783.9 1243 1783 L 1242.5 1785 L 1209 1785 Q 1207.7 1781.3 1213.5 1783 Q 1220.7 1781.2 1224 1775.5 L 1269.5 1667 Z M 1268.5 1689 L 1249 1737.5 L 1249.5 1740 L 1288 1740 L 1272 1695.5 L 1268.5 1689 Z" />
 <path fill="rgb(161,214,163)" d="M 601 1669 L 636.5 1669 L 637 1672 Q 628.6 1670.7 626 1676.5 L 625 1678.5 L 625 1776.5 L 628.5 1781 Q 631.5 1783.8 637 1783 L 636.5 1785 L 601 1785 Q 599.6 1781.3 605.5 1783 L 611 1779.5 L 613 1775.5 L 613 1678.5 L 608.5 1673 L 601 1672 L 601 1669 Z" />
 <path fill="rgb(161,214,163)" d="M 663 1669 L 697.5 1669 L 698 1671 Q 683.3 1671.6 677 1681.5 L 641 1723.5 L 688.5 1779 L 697.5 1783 L 702 1783 L 701.5 1785 L 685.5 1785 Q 672 1782.5 666 1772.5 L 629 1727.5 L 667 1680.5 Q 669.8 1678.8 669 1673.5 L 663 1671 L 663 1669 Z" />
 <path fill="rgb(161,214,163)" d="M 707 1669 L 741.5 1669 L 742 1670.5 Q 740.5 1673.5 734.5 1672 L 731 1675.5 L 730 1677.5 L 730 1747.5 L 733 1760.5 Q 736.7 1769.3 743.5 1775 Q 752.4 1783.1 770.5 1782 Q 787.2 1779.2 795 1767.5 L 801 1752.5 L 801 1676.5 L 798.5 1673 L 790 1672 L 790.5 1669 L 821 1669 L 821 1672 L 814.5 1672 L 810 1676.5 L 810 1749.5 Q 807.8 1750.8 809 1755.5 Q 805.8 1769.3 796.5 1777 Q 784.8 1788.8 760.5 1788 Q 758.7 1785.3 752.5 1787 L 743.5 1784 Q 734.1 1779.9 728 1772.5 Q 721.1 1764.9 719 1752.5 L 719 1677.5 L 714.5 1672 Q 708.5 1673.5 707 1670.5 L 707 1669 Z" />
 <path fill="rgb(161,214,163)" d="M 839 1669 L 874.5 1669 L 875 1672 Q 866.6 1670.7 864 1676.5 L 863 1678.5 L 863 1725 L 929 1725 L 929 1677.5 L 926.5 1674 Q 923.7 1670.6 917 1672 L 917.5 1669 L 954 1669 L 952.5 1672 Q 943.9 1670.9 942 1676.5 L 941 1678.5 L 941 1775.5 L 944.5 1781 Q 947.8 1784 954 1783 L 953.5 1785 L 917 1785 Q 915.6 1781.3 921.5 1783 L 928 1778.5 L 929 1776.5 L 929 1731 L 863 1731 L 863 1776.5 L 866.5 1781 Q 869.5 1783.8 875 1783 L 874.5 1785 L 839 1785 Q 837.6 1781.3 843.5 1783 L 849 1779.5 L 851 1776.5 L 851 1678.5 L 846.5 1673 L 839 1672 L 839 1669 Z" />
 <path fill="rgb(161,214,163)" d="M 973 1669 L 1008.5 1669 L 1009 1672 Q 1000.6 1670.7 998 1676.5 L 997 1678.5 L 997 1776.5 L 1000.5 1781 Q 1003.5 1783.8 1009 1783 L 1008.5 1785 L 973 1785 Q 971.6 1781.3 977.5 1783 L 983 1779.5 L 985 1775.5 L 985 1678.5 L 980.5 1673 L 973 1672 L 973 1669 Z" />
 <path fill="rgb(161,214,163)" d="M 1167 1669 L 1203.5 1669 L 1204 1672 Q 1195.8 1670.5 1193 1675.5 L 1191 1680.5 L 1191 1792.5 Q 1187.9 1804.9 1179.5 1812 L 1167.5 1818 L 1160 1818 Q 1158.9 1815.3 1161.5 1816 Q 1169 1813 1173 1806.5 L 1177 1799.5 L 1180 1788.5 L 1180 1680.5 L 1175.5 1673 L 1167 1672 L 1167 1669 Z" />
 <path fill="rgb(225,140,55)" d="M 464.5 1105 L 486.5 1105 L 492 1106 L 498 1117.5 L 499 1124.5 Q 497.4 1131.4 491.5 1134 L 485.5 1135 Q 477.5 1134 475 1127.5 L 465 1108.5 L 464.5 1105 Z" />
 <path fill="rgb(225,140,55)" d="M 555 1106 L 588.5 1106 L 590 1107.5 Q 612.5 1154 642.5 1193 L 644.5 1192 Q 647.8 1193.8 644 1195.5 L 647 1198.5 L 671 1228.5 L 667.5 1230 Q 633 1203.5 604 1171.5 L 573.5 1134 L 569 1130.5 L 570 1128.5 L 555 1106 Z" />
 <path fill="rgb(225,140,55)" d="M 622.5 1107 L 1210 1112.5 L 1208.5 1114 L 1186.5 1114 L 1185.5 1115 L 1123.5 1116 L 1122.5 1117 L 1077.5 1117 L 1076.5 1118 L 844.5 1118 L 841.5 1117 L 839.5 1117 L 798.5 1117 L 795.5 1116 L 793.5 1116 L 763.5 1116 L 762.5 1115 L 734.5 1115 L 733.5 1114 L 711.5 1114 L 710.5 1113 L 674.5 1112 L 673.5 1111 L 631.5 1109 L 630.5 1108 L 622.5 1108 L 622.5 1107 Z" />
 <path fill="rgb(225,140,55)" d="M 1269.5 1113 L 1360 1114 L 1343 1139.5 L 1309.5 1179 Q 1307.3 1178.3 1308 1180.5 Q 1284.5 1205.5 1257 1226.5 L 1255.5 1230 L 1253.5 1229 Q 1227.1 1251.1 1195.5 1268 L 1162.5 1285 L 1129.5 1299 L 1089.5 1312 L 1040.5 1323 L 1020.5 1325 L 1012.5 1327 L 991.5 1328 L 990.5 1329 L 964.5 1329 L 963.5 1330 L 955.5 1330 L 954.5 1329 L 928.5 1329 L 927.5 1328 L 917.5 1328 L 916.5 1327 L 906.5 1327 L 905.5 1326 L 893.5 1325 L 863.5 1316 L 846.5 1309 Q 805.3 1289.7 767.5 1267 L 692.5 1218 Q 690.8 1221.8 689 1218.5 L 690 1216.5 L 680 1209.5 L 682 1202.5 L 688.5 1195 Q 697.3 1187.8 715.5 1190 L 735 1195 L 725.5 1182 L 723.5 1183 Q 720.8 1181.8 723 1180.5 L 724 1175.5 L 723 1174.5 L 726.5 1171 L 739.5 1166 L 747.5 1166 L 764.5 1171 L 793 1188 L 794.5 1185 Q 797.3 1186.3 795 1187.5 Q 794.3 1192.3 797.5 1193 L 803.5 1197 Q 805.3 1193.3 807 1196.5 L 805 1198.5 L 810.5 1204 Q 828.8 1224.2 854.5 1237 L 871.5 1242 L 887.5 1242 L 887.5 1241 L 868.5 1236 Q 857.2 1231.8 850 1223.5 Q 844.5 1218 845 1206.5 Q 847.5 1196.5 853.5 1190 L 867.5 1197 L 883.5 1202 L 905.5 1206 L 914.5 1206 L 915.5 1207 L 937.5 1207 L 946.5 1205 L 970.5 1205 L 985.5 1208 L 1023.5 1226 L 1033.5 1228 L 1044.5 1228 L 1069.5 1223 L 1094.5 1214 L 1100.5 1213 Q 1136.2 1200.2 1168.5 1184 Q 1197.5 1169 1223.5 1151 Q 1248.6 1134.1 1269.5 1113 Z" />
 <path fill="rgb(225,140,55)" d="M 1423 1115 L 1451 1115.5 Q 1447.7 1125.2 1440.5 1131 L 1431.5 1132 L 1424 1126.5 L 1422 1119.5 L 1423 1115 Z" />
 <path fill="rgb(225,140,55)" d="M 1398.5 1160 L 1405.5 1161 L 1412 1167.5 L 1413 1175.5 Q 1405 1189.5 1393.5 1200 L 1384.5 1201 L 1378 1196.5 Q 1374.8 1193.2 1376 1185.5 L 1386 1171.5 Q 1383.8 1170.2 1386.5 1169 Q 1389.8 1170.1 1389 1167.5 L 1398.5 1160 Z" />
 <path fill="rgb(225,140,55)" d="M 516.5 1163 Q 526.6 1161.4 530 1166.5 L 539.5 1179 L 542 1180.5 L 546 1188.5 L 546 1193.5 Q 544.4 1200.4 538.5 1203 L 531.5 1204 L 522 1196.5 L 510 1180.5 L 509 1171.5 L 513.5 1165 L 516.5 1163 Z" />
 <path fill="rgb(225,140,55)" d="M 1342.5 1224 Q 1354.3 1222.2 1357 1229.5 Q 1359.7 1231.8 1359 1237.5 Q 1356.4 1244.9 1350.5 1249 L 1348 1250.5 L 1346.5 1253 L 1337.5 1261 L 1331.5 1263 L 1327.5 1262 Q 1326.3 1264.2 1325 1261.5 L 1319 1252.5 L 1319 1247.5 L 1327.5 1237 L 1342.5 1224 Z" />
 <path fill="rgb(225,140,55)" d="M 571.5 1226 Q 578.3 1224.7 581.5 1227 L 601 1245.5 Q 603.8 1248.2 603 1254.5 Q 601.6 1260.6 596.5 1263 L 590.5 1265 L 584.5 1263 Q 581.1 1256.8 574 1254.5 L 565 1244.5 Q 562.3 1242.2 563 1236.5 Q 564.5 1230 569.5 1227 L 571.5 1226 Z" />
 <path fill="rgb(225,140,55)" d="M 1280.5 1278 Q 1289.2 1276.8 1292 1281.5 Q 1296.5 1285 1295 1294.5 L 1290.5 1300 L 1273.5 1312 Q 1270.2 1315.2 1262.5 1314 L 1255 1307.5 L 1254 1298.5 L 1260.5 1291 L 1280.5 1278 Z" />
 <path fill="rgb(225,140,55)" d="M 639.5 1279 L 645.5 1281 L 658.5 1290 Q 659.7 1287.8 661 1290.5 Q 659.9 1293.8 662.5 1293 Q 669.8 1295.7 668 1307.5 L 661.5 1315 L 653.5 1316 L 633.5 1303 L 629 1298.5 Q 626 1295.5 627 1288.5 L 631.5 1282 L 639.5 1279 Z" />
 <path fill="rgb(225,140,55)" d="M 1208.5 1322 Q 1217.9 1320.6 1221 1325.5 Q 1224.7 1328.3 1225 1334.5 Q 1224.1 1341.1 1219.5 1344 L 1198.5 1355 L 1192.5 1356 L 1188.5 1355 L 1183 1349.5 L 1181 1342.5 Q 1182.1 1334.5 1188.5 1332 L 1208.5 1322 Z" />
 <path fill="rgb(225,140,55)" d="M 707.5 1323 L 715.5 1324 L 735.5 1334 L 739 1337.5 Q 742.2 1340.8 741 1348.5 L 735.5 1355 Q 732.6 1357.6 726.5 1357 L 705.5 1347 L 699 1340.5 L 698 1332.5 L 703.5 1325 L 707.5 1323 Z" />
 <path fill="rgb(225,140,55)" d="M 1135.5 1354 Q 1143.6 1355.4 1147 1361.5 L 1148 1368.5 L 1146 1373.5 Q 1148.3 1374.8 1145.5 1376 L 1123.5 1384 L 1112.5 1385 L 1105 1379.5 L 1103 1372.5 Q 1103.9 1365.9 1108.5 1363 L 1135.5 1354 Z" />
 <path fill="rgb(225,140,55)" d="M 783.5 1356 L 791.5 1356 L 810.5 1362 L 818 1368.5 L 819 1377.5 L 812.5 1385 L 803.5 1386 L 786.5 1381 Q 779.8 1378.8 776 1373.5 L 775 1364.5 L 779.5 1358 L 783.5 1356 Z" />
 <path fill="rgb(225,140,55)" d="M 1052.5 1375 Q 1061.7 1374.8 1065 1380.5 Q 1068 1383.5 1067 1390.5 L 1061.5 1398 L 1056.5 1400 L 1031.5 1403 L 1024 1397.5 Q 1021 1394.5 1022 1387.5 L 1029.5 1379 L 1052.5 1375 Z" />
 <path fill="rgb(225,140,55)" d="M 864.5 1376 L 872.5 1376 L 873.5 1377 L 891.5 1379 L 898 1383.5 Q 901.7 1386.3 901 1393.5 L 894.5 1402 L 892.5 1403 L 881.5 1403 L 864.5 1400 L 859 1396.5 Q 854.3 1393.7 856 1384.5 L 862.5 1377 L 864.5 1376 Z" />
 <path fill="rgb(225,140,55)" d="M 970.5 1383 L 976.5 1384 L 981 1387.5 Q 985.1 1390.4 984 1398.5 L 978.5 1406 L 974.5 1408 L 948.5 1408 L 941 1404.5 L 939 1399.5 L 939 1391.5 L 942.5 1385 L 944.5 1386 L 946.5 1384 L 969.5 1384 L 970.5 1383 Z" />
 <path fill="rgb(206,161,86)" d="M 480.5 848 L 481.5 849 L 531 849 L 531 895.5 L 532 896.5 L 533 920.5 L 534 921.5 L 535 936.5 L 541 970.5 L 549 1003.5 L 561 1041.5 L 567 1057.5 L 571 1063.5 L 574 1074.5 L 583.5 1093 L 590.5 1090 L 608.5 1088 L 609.5 1087 L 616.5 1087 L 617.5 1086 L 625.5 1086 L 626.5 1085 L 662.5 1083 L 663.5 1082 L 678.5 1082 L 679.5 1081 L 734 1079 L 734 851.5 L 734.5 851 L 790.5 851 L 791.5 852 L 814 852 L 814 1075.5 L 814.5 1076 L 837 1076 L 837 931.5 L 838.5 930 L 863 929.5 Q 850.8 912.7 843 891.5 L 839 876.5 L 838 864.5 Q 840.8 862.7 839 856.5 L 841.5 852 L 1079.5 854 L 1081 855.5 L 1082 871.5 L 1078 889.5 L 1073 902.5 L 1057 929.5 L 1081.5 930 L 1084 932.5 L 1084 1075.5 L 1084.5 1076 L 1106 1076 L 1106 855 L 1186 855 L 1186 1078.5 L 1186.5 1079 L 1201.5 1079 L 1202.5 1080 L 1222.5 1080 L 1223.5 1081 L 1270.5 1083 L 1271.5 1084 L 1282.5 1084 L 1283.5 1085 Q 1291.7 1083.3 1295.5 1086 Q 1308.8 1073.8 1317.5 1057 L 1321 1054.5 Q 1346.7 1018.2 1364 973.5 L 1379 924.5 L 1386 885.5 L 1388 857 L 1439.5 858 L 1441 859.5 L 1440 860.5 L 1440 880.5 L 1439 881.5 L 1438 902.5 L 1437 903.5 L 1435 924.5 L 1429 955.5 L 1415 1004.5 L 1398 1047.5 Q 1400.3 1048.8 1397.5 1050 L 1395 1051.5 Q 1380.9 1085.9 1360.5 1114 L 1313.5 1114 L 1312.5 1113 L 1270 1112.5 L 1273 1110.5 L 1262.5 1110 L 1261.5 1111 L 1229.5 1112 L 1228.5 1113 L 1210.5 1113 L 1209.5 1112 L 1107.5 1112 L 1106.5 1111 L 1004.5 1111 L 1003.5 1110 L 900.5 1110 L 899.5 1109 L 797.5 1109 L 796.5 1108 L 613.5 1107 L 612.5 1106 L 593.5 1104 L 587.5 1102 L 588 1103.5 L 589 1105.5 L 554 1106 Q 536.6 1078.2 522 1046.5 L 507 1009.5 L 499 984.5 L 490 949.5 L 484 915.5 L 482 890.5 L 481 889.5 L 481 876.5 L 480 875.5 L 480.5 848 Z" />
 <path fill="rgb(206,161,86)" d="M 410.5 852 L 416.5 852 L 424 857.5 L 426 861.5 L 427 887.5 L 424 893.5 Q 426.3 894.8 423.5 896 L 421.5 895 Q 418.5 898 411.5 897 L 404 891.5 L 402 886.5 L 402 865.5 L 401 863.5 Q 401.9 856.9 406.5 854 L 410.5 852 Z" />
 <path fill="rgb(206,161,86)" d="M 1494 858 L 1513.5 858 L 1519 860.5 L 1518 862.5 L 1518 884.5 L 1512.5 894 L 1510.5 893 L 1505.5 895 Q 1498.1 893.9 1495 888.5 Q 1492.3 885.2 1493 878.5 L 1494 877.5 L 1494 858 Z" />
 <path fill="rgb(206,161,86)" d="M 1495.5 932 Q 1503.9 931.1 1507 935.5 Q 1511.9 939.6 1510 950.5 L 1506 969.5 L 1499.5 976 L 1491.5 977 L 1484 971.5 Q 1481 968.5 1482 961.5 L 1486 941.5 L 1492.5 933 L 1495.5 932 Z" />
 <path fill="rgb(206,161,86)" d="M 418.5 935 Q 428.9 933.6 432 939.5 L 435 945.5 L 435 950.5 L 439 968.5 Q 437.5 975 432.5 978 Q 430.2 980.7 424.5 980 L 417 975.5 L 414 969.5 L 410 950.5 L 410 944.5 L 411 941.5 Q 408.8 940.2 411.5 939 L 413 938.5 Q 410.7 937.3 413.5 936 L 415.5 937 L 418.5 935 Z" />
 <path fill="rgb(206,161,86)" d="M 1473.5 1013 Q 1485.3 1011.2 1488 1018.5 L 1490 1026.5 L 1482 1049.5 L 1475.5 1056 L 1467.5 1057 L 1460 1051.5 Q 1457.2 1048.8 1458 1042.5 L 1465 1022.5 L 1470.5 1015 L 1473.5 1013 Z" />
 <path fill="rgb(206,161,86)" d="M 442.5 1015 Q 450.8 1015.8 454 1021.5 L 463 1044.5 L 463 1049.5 L 456.5 1058 L 450.5 1060 Q 443.1 1058.9 440 1053.5 L 432 1033.5 L 431 1025.5 Q 432.4 1019.4 437.5 1017 L 442.5 1015 Z" />
 <path fill="rgb(206,161,86)" d="M 1443.5 1089 Q 1452.5 1090 1456 1096.5 L 1457 1104.5 L 1452 1115 L 1424.5 1115 L 1424 1113.5 L 1434 1095.5 L 1438.5 1091 L 1443.5 1089 Z" />
 <path fill="rgb(206,161,86)" d="M 473.5 1092 Q 481.4 1091.1 485 1094.5 L 491 1106 L 486.5 1105 L 464 1105 Q 464.2 1097.4 469.5 1094 L 473.5 1092 Z" />
</svg>